<?xml version="1.0" encoding="UTF-8"?>
<svg version="1.1" xmlns="http://www.w3.org/2000/svg" width="74" height="74">
<path d="M0 0 C8.04872232 5.77346512 13.55847047 13.02562564 15.89453125 22.73046875 C17.62346961 33.41110665 15.73210065 42.18080229 10.5 51.5625 C5.53043762 57.80994985 0.79050215 62.32430235 -6.6875 65.3125 C-7.71875 65.725 -8.75 66.1375 -9.8125 66.5625 C-21.06486205 68.74037653 -31.31078516 67.81789862 -41.15625 61.8046875 C-49.11672062 56.09968356 -54.91685589 48.05104258 -56.6875 38.3125 C-57.63595765 27.08908442 -56.72066625 17.09970392 -49.4140625 8.19140625 C-36.16628271 -6.22529529 -17.31409776 -10.73357074 0 0 Z " fill="#FCB628" transform="translate(57.6875,6.6875)"/>
<path d="M0 0 C6.7121215 2.22959167 10.93855858 7.3541936 14.3671875 13.41796875 C18.68641076 22.8288311 19.69302115 32.991504 16.25 42.875 C12.77195492 51.33379952 7.51299853 57.45407259 0.375 63.0625 C-2 64 -2 64 -4.36425781 63.22167969 C-6.86194625 62.0639886 -9.18920513 60.80965826 -11.546875 59.390625 C-12.3925 58.88273437 -13.238125 58.37484375 -14.109375 57.8515625 C-14.98078125 57.32304688 -15.8521875 56.79453125 -16.75 56.25 C-18.03390625 55.48042969 -18.03390625 55.48042969 -19.34375 54.6953125 C-25.00266776 51.28281361 -30.53419699 47.71356015 -36 44 C-34.74814655 40.24443965 -33.60773999 39.87518208 -30.2578125 37.890625 C-29.27296875 37.30023438 -28.288125 36.70984375 -27.2734375 36.1015625 C-26.23445313 35.49054687 -25.19546875 34.87953125 -24.125 34.25 C-21.09127516 32.44383908 -18.06044688 30.63462956 -15.04321289 28.80102539 C-13.00481946 27.59466933 -10.93178694 26.44512152 -8.82983398 25.35327148 C-3.35184697 22.51102372 -3.35184697 22.51102372 -0.04589844 17.57568359 C0.30618039 14.83870195 0.32434456 12.31724055 0.1875 9.5625 C0.18556641 8.64017578 0.18363281 7.71785156 0.18164062 6.76757812 C0.16992432 4.50633158 0.10836155 2.25833151 0 0 Z " fill="#042F4E" transform="translate(56,7)"/>
<path d="M0 0 C0 20.13 0 40.26 0 61 C-7.40571784 57.29714108 -12.77838624 50.61537473 -15.8125 42.9375 C-18.57974235 33.67119134 -18.09055949 22.79393689 -14 14 C-11.40160702 9.72299917 -5.32764163 0 0 0 Z " fill="#022E4F" transform="translate(18,7)"/>
<path d="M0 0 C0.33 0 0.66 0 1 0 C1.0093457 1.25135742 1.01869141 2.50271484 1.02832031 3.79199219 C1.06820482 8.4365595 1.13395941 13.08046335 1.20751953 17.72460938 C1.23573807 19.73428827 1.25694821 21.74407834 1.27099609 23.75390625 C1.29241335 26.64380849 1.33905703 29.5323729 1.390625 32.421875 C1.39185364 33.31992859 1.39308228 34.21798218 1.39434814 35.14324951 C1.47267469 40.12131618 1.47267469 40.12131618 3.7578125 44.42114258 C5.96865118 45.97792543 8.15233718 47.47000454 10.484375 48.83984375 C11.33773438 49.34580078 12.19109375 49.85175781 13.0703125 50.37304688 C13.95460938 50.88931641 14.83890625 51.40558594 15.75 51.9375 C17.49520094 52.96675426 19.23999761 53.99669435 20.984375 55.02734375 C21.82419922 55.52218262 22.66402344 56.01702148 23.52929688 56.52685547 C27.05532518 58.62923242 30.52886836 60.80834362 34 63 C33 65 33 65 30.3125 66.125 C20.26722861 68.68272824 10.25817101 67.47628074 1 63 C0 62 0 62 -0.12025452 59.52598572 C-0.11803391 58.42678299 -0.11581329 57.32758026 -0.11352539 56.19506836 C-0.11344986 54.95385727 -0.11337433 53.71264618 -0.11329651 52.43382263 C-0.10818911 51.0691626 -0.1029731 49.70450298 -0.09765625 48.33984375 C-0.095792 46.95121817 -0.09436813 45.56259193 -0.09336853 44.17396545 C-0.08954387 40.51278885 -0.07971403 36.8516517 -0.06866455 33.19049072 C-0.05844932 29.45707737 -0.05387067 25.72365766 -0.04882812 21.99023438 C-0.03809171 14.66013823 -0.02101591 7.33007464 0 0 Z " fill="#E9AC2A" transform="translate(18,7)"/>
</svg>
